# Blender 3.6.5
# www.blender.org
mtllib Traffic_cone.mtl
o Cube.001
v 0.000000 0.100000 -0.400000
v 0.282843 0.100000 -0.282843
v 0.400000 0.100000 0.000000
v 0.369552 0.100000 0.153073
v 0.153073 0.100000 0.369552
v -0.282843 0.100000 0.282843
v -0.369552 0.100000 -0.153073
v -0.282843 0.100000 -0.282843
v -0.153073 0.100000 -0.369552
v 0.000000 1.500000 -0.090598
v 0.000000 1.492837 -0.099608
v 0.034670 1.500000 -0.083702
v 0.038118 1.492837 -0.092026
v 0.064062 1.500000 -0.064063
v 0.070434 1.492837 -0.070434
v 0.083702 1.500000 -0.034671
v 0.092026 1.492837 -0.038119
v 0.090598 1.500000 -0.000000
v 0.099608 1.492837 -0.000000
v 0.083702 1.500000 0.034670
v 0.092026 1.492837 0.038118
v 0.064062 1.500000 0.064062
v 0.070434 1.492837 0.070433
v 0.034670 1.500000 0.083701
v 0.038118 1.492837 0.092026
v 0.000000 1.500000 0.090598
v 0.000000 1.492837 0.099608
v -0.034670 1.500000 0.083701
v -0.038118 1.492837 0.092026
v -0.064062 1.500000 0.064062
v -0.070434 1.492837 0.070433
v -0.083702 1.500000 0.034670
v -0.092026 1.492837 0.038118
v -0.090598 1.500000 -0.000000
v -0.099608 1.492837 -0.000000
v -0.083702 1.500000 -0.034671
v -0.092026 1.492837 -0.038119
v -0.064062 1.500000 -0.064063
v -0.070434 1.492837 -0.070434
v -0.034670 1.500000 -0.083702
v -0.038118 1.492837 -0.092026
v 0.153073 0.100000 -0.369552
v 0.369552 0.100000 -0.153073
v 0.282843 0.100000 0.282843
v 0.000000 0.100000 0.400000
v -0.153073 0.100000 0.369552
v -0.369552 0.100000 0.153073
v -0.400000 0.100000 -0.000000
v 0.000000 0.339969 -0.317896
v 0.121654 0.339969 -0.293698
v -0.121653 0.339969 -0.293698
v 0.224787 0.339969 -0.224787
v 0.293698 0.339969 -0.121654
v 0.317896 0.339969 -0.000000
v 0.293698 0.339969 0.121654
v 0.224787 0.339969 0.224787
v 0.121654 0.339969 0.293698
v 0.000000 0.339969 0.317896
v -0.121654 0.339969 0.293698
v -0.224787 0.339969 0.224787
v -0.293698 0.339969 0.121654
v -0.317896 0.339969 -0.000000
v -0.293698 0.339969 -0.121654
v -0.224786 0.339969 -0.224787
v -0.500000 0.100000 0.422375
v -0.422375 0.100000 0.500000
v -0.422375 0.100000 -0.500000
v -0.500000 0.100000 -0.422375
v 0.422375 0.100000 0.500000
v 0.500000 0.100000 0.422375
v 0.500000 0.100000 -0.422375
v 0.422375 0.100000 -0.500000
v -0.414492 0.000000 0.480967
v -0.422375 0.019033 0.500000
v -0.480967 0.000000 0.414492
v -0.500000 0.019033 0.422375
v -0.480967 -0.000000 -0.414492
v -0.500000 0.019033 -0.422375
v -0.414492 -0.000000 -0.480967
v -0.422375 0.019033 -0.500000
v 0.480967 0.000000 0.414492
v 0.500000 0.019033 0.422375
v 0.414492 0.000000 0.480967
v 0.422375 0.019033 0.500000
v 0.414492 -0.000000 -0.480967
v 0.422375 0.019033 -0.500000
v 0.480967 -0.000000 -0.414492
v 0.500000 0.019033 -0.422375
v 0.000000 1.303767 -0.135408
v -0.051818 1.303767 -0.125100
v 0.051818 1.303767 -0.125100
v 0.095747 1.303767 -0.095748
v 0.125100 1.303767 -0.051818
v 0.135407 1.303767 -0.000000
v 0.125100 1.303767 0.051818
v 0.095747 1.303767 0.095747
v 0.051818 1.303767 0.125100
v 0.000000 1.303767 0.135407
v -0.051818 1.303767 0.125100
v -0.095747 1.303767 0.095747
v -0.125100 1.303767 0.051818
v -0.135407 1.303767 -0.000000
v -0.125100 1.303767 -0.051818
v -0.095747 1.303767 -0.095748
vn 0.3557 -0.3689 0.8587
vn 0.9239 -0.0000 0.3827
vn 0.3827 -0.0000 0.9239
vn -0.3760 0.1860 -0.9078
vn -0.0000 0.4985 -0.8669
vn -0.0000 0.1860 -0.9825
vn 0.6130 0.4985 -0.6130
vn 0.9078 0.1860 -0.3760
vn 0.6948 0.1860 -0.6948
vn 0.8009 0.4985 -0.3317
vn 0.9825 0.1860 -0.0000
vn 0.8669 0.4985 -0.0000
vn 0.9078 0.1860 0.3760
vn 0.6130 0.4985 0.6130
vn 0.6948 0.1860 0.6948
vn 0.3760 0.1860 0.9078
vn 0.3317 0.4985 0.8009
vn -0.0000 0.1860 0.9825
vn -0.0000 0.4985 0.8669
vn -0.3760 0.1860 0.9078
vn -0.6130 0.4985 0.6130
vn -0.6948 0.1860 0.6948
vn -0.8009 0.4985 0.3317
vn -0.9078 0.1860 0.3760
vn -0.9825 0.1860 -0.0000
vn -0.8669 0.4985 -0.0000
vn -0.9078 0.1860 -0.3760
vn -0.6130 0.4985 -0.6130
vn -0.6948 0.1860 -0.6948
vn 0.3760 0.1860 -0.9078
vn 0.3317 0.4985 -0.8009
vn 0.2381 0.7828 -0.5749
vn 0.4401 0.7828 -0.4400
vn 0.5750 0.7828 -0.2381
vn 0.6223 0.7828 -0.0000
vn 0.8009 0.4985 0.3317
vn 0.5750 0.7828 0.2381
vn 0.4400 0.7828 0.4400
vn 0.2381 0.7828 0.5749
vn -0.0000 0.7828 0.6223
vn -0.3317 0.4985 0.8009
vn -0.2382 0.7828 0.5749
vn -0.4400 0.7828 0.4400
vn -0.5749 0.7828 0.2382
vn -0.6223 0.7828 -0.0000
vn -0.5749 0.7828 -0.2382
vn -0.8009 0.4985 -0.3317
vn -0.4400 0.7828 -0.4400
vn -0.3317 0.4985 -0.8009
vn -0.2381 0.7828 -0.5749
vn -0.0000 0.7828 -0.6223
vn -0.0000 1.0000 -0.0000
vn 0.3698 0.2577 -0.8927
vn 0.6690 0.3237 -0.6690
vn 0.3621 0.3237 -0.8741
vn -0.0000 0.2577 -0.9662
vn -0.0000 0.3237 -0.9462
vn -0.6832 0.2577 -0.6832
vn -0.3621 0.3237 -0.8741
vn -0.6690 0.3237 -0.6690
vn -0.8741 0.3237 -0.3621
vn -0.9662 0.2577 -0.0000
vn -0.9462 0.3237 -0.0000
vn -0.8927 0.2577 0.3698
vn -0.8741 0.3237 0.3621
vn -0.6832 0.2577 0.6832
vn -0.6690 0.3237 0.6690
vn -0.3621 0.3237 0.8741
vn -0.0000 0.2577 0.9662
vn -0.0000 0.3237 0.9462
vn 0.3621 0.3237 0.8741
vn 0.6832 0.2577 0.6832
vn 0.6690 0.3237 0.6690
vn 0.8927 0.2577 0.3698
vn 0.8741 0.3237 0.3621
vn 0.9662 0.2577 -0.0000
vn 0.9462 0.3237 -0.0000
vn 0.8741 0.3237 -0.3621
vn 0.6832 0.2577 -0.6832
vn -0.3698 0.2577 -0.8927
vn 0.4044 -0.8991 -0.1675
vn 0.1675 -0.8991 0.4044
vn -0.4044 -0.8991 0.1675
vn 0.8587 -0.3689 -0.3557
vn 0.3827 -0.0000 -0.9239
vn 0.9239 -0.0000 -0.3827
vn -0.9239 -0.0000 0.3827
vn -0.8587 -0.3689 -0.3557
vn -0.8587 -0.3689 0.3557
vn -0.3557 -0.3689 0.8587
vn -0.3827 -0.0000 -0.9239
vn 0.3557 -0.3689 -0.8587
vn -0.3557 -0.3689 -0.8587
vn 0.8587 -0.3689 0.3557
vn -0.9239 -0.0000 -0.3827
vn -0.1675 -0.8991 0.4044
vn -0.4044 -0.8991 -0.1675
vn -0.1675 -0.8991 -0.4044
vn 0.1675 -0.8991 -0.4044
vn 0.4044 -0.8991 0.1675
vn -0.3827 -0.0000 0.9239
vn -0.8927 0.2577 -0.3698
vn -0.3698 0.2577 0.8927
vn 0.3698 0.2577 0.8927
vn 0.8927 0.2577 -0.3698
vt 0.977409 0.716088
vt 0.910973 0.671505
vt 0.977409 0.671505
vt 0.709793 0.163482
vt 0.763498 0.040539
vt 0.763498 0.163482
vt 0.870907 0.040539
vt 0.924612 0.163482
vt 0.870907 0.163482
vt 0.924612 0.040539
vt 0.978317 0.163482
vt 0.119042 0.040539
vt 0.172747 0.163482
vt 0.119042 0.163482
vt 0.226451 0.040539
vt 0.226451 0.163482
vt 0.280156 0.163482
vt 0.280156 0.040539
vt 0.333861 0.163482
vt 0.333861 0.040539
vt 0.387565 0.163482
vt 0.441270 0.040539
vt 0.441270 0.163482
vt 0.494975 0.040539
vt 0.494975 0.163482
vt 0.548679 0.163482
vt 0.548679 0.040539
vt 0.602384 0.163482
vt 0.656089 0.040539
vt 0.656089 0.163482
vt 0.817203 0.163482
vt 0.817203 0.040539
vt 0.817203 0.003697
vt 0.870907 0.003697
vt 0.924612 0.003697
vt 0.978317 0.003697
vt 0.978317 0.040539
vt 0.172747 0.040539
vt 0.119042 0.003697
vt 0.172747 0.003697
vt 0.226451 0.003697
vt 0.280156 0.003697
vt 0.333861 0.003697
vt 0.387565 0.040539
vt 0.387565 0.003697
vt 0.441270 0.003697
vt 0.494975 0.003697
vt 0.548679 0.003697
vt 0.602384 0.003697
vt 0.602384 0.040539
vt 0.656089 0.003697
vt 0.709793 0.040539
vt 0.709793 0.003697
vt 0.763498 0.003697
vt 0.156728 0.936032
vt 0.075456 0.814401
vt 0.197088 0.733129
vt 0.817203 0.510307
vt 0.870907 0.642015
vt 0.817203 0.642015
vt 0.763498 0.510307
vt 0.763498 0.642015
vt 0.656089 0.510307
vt 0.709793 0.642015
vt 0.656089 0.642015
vt 0.602384 0.642015
vt 0.548679 0.510307
vt 0.548679 0.642015
vt 0.494975 0.510307
vt 0.494975 0.642015
vt 0.441270 0.510307
vt 0.441270 0.642015
vt 0.387565 0.642015
vt 0.333861 0.510307
vt 0.333861 0.642015
vt 0.280156 0.642015
vt 0.226451 0.510307
vt 0.226451 0.642015
vt 0.172747 0.510307
vt 0.172747 0.642015
vt 0.119042 0.510307
vt 0.119042 0.642015
vt 0.924612 0.642015
vt 0.978317 0.510307
vt 0.978317 0.642015
vt 0.870907 0.510307
vt 0.709793 0.510307
vt 0.103250 0.626439
vt 0.014445 0.619847
vt 0.021038 0.531042
vt 0.978608 0.878652
vt 0.910633 0.830279
vt 0.978608 0.830279
vt 0.364676 0.914768
vt 0.910633 0.963141
vt 0.364676 0.963141
vt 0.364676 0.750892
vt 0.910972 0.795475
vt 0.364676 0.795475
vt 0.364676 0.830279
vt 0.910633 0.878652
vt 0.364676 0.878652
vt 0.079318 0.728370
vt 0.004669 0.680405
vt 0.031353 0.653721
vt 0.364676 0.671505
vt 0.910973 0.716088
vt 0.364677 0.716088
vt 0.978608 0.963141
vt 0.910633 0.914768
vt 0.978608 0.914768
vt 0.910973 0.810919
vt 0.977409 0.795475
vt 0.977409 0.810919
vt 0.910633 0.979898
vt 0.978608 0.979898
vt 0.910633 0.895408
vt 0.978608 0.895408
vt 0.910973 0.731532
vt 0.977409 0.731532
vt 0.364676 0.979898
vt 0.364676 0.810919
vt 0.364676 0.895408
vt 0.364677 0.731532
vt 0.910972 0.750892
vt 0.273776 0.728370
vt 0.321742 0.653721
vt 0.348426 0.680405
vt 0.273776 0.922828
vt 0.348426 0.970793
vt 0.321742 0.997477
vt 0.079318 0.922828
vt 0.031353 0.997477
vt 0.004669 0.970793
vt 0.031354 0.997477
vt 0.123928 0.952635
vt 0.176548 0.963102
vt 0.039045 0.825599
vt 0.176547 0.688096
vt 0.303583 0.878219
vt 0.314050 0.825599
vt 0.602384 0.510307
vt 0.387565 0.510307
vt 0.280156 0.510307
vt 0.924612 0.510307
vt 0.119440 0.920587
vt 0.090901 0.892048
vt 0.075456 0.854761
vt 0.090902 0.777113
vt 0.119440 0.748574
vt 0.156728 0.733129
vt 0.234376 0.748575
vt 0.262914 0.777113
vt 0.278359 0.814401
vt 0.278359 0.854761
vt 0.262914 0.892048
vt 0.234375 0.920587
vt 0.197088 0.936032
vt 0.103250 0.531042
vt 0.109842 0.537634
vt 0.109842 0.619847
vt 0.021038 0.626439
vt 0.014445 0.537634
vt 0.123927 0.698563
vt 0.049511 0.772979
vt 0.977409 0.750892
vt 0.303583 0.772979
vt 0.229167 0.698563
vt 0.229168 0.952635
vt 0.049511 0.878219
vt 0.123927 0.952635
s 1
usemtl cube_mix
f 84/1/1 70/2/2 69/3/3
f 90/4/4 11/5/5 89/6/6
f 15/7/7 93/8/8 92/9/9
f 17/10/10 94/11/11 93/8/8
f 19/12/12 95/13/13 94/14/11
f 95/13/13 23/15/14 96/16/15
f 23/15/14 97/17/16 96/16/15
f 25/18/17 98/19/18 97/17/16
f 27/20/19 99/21/20 98/19/18
f 99/21/20 31/22/21 100/23/22
f 100/23/22 33/24/23 101/25/24
f 33/24/23 102/26/25 101/25/24
f 35/27/26 103/28/27 102/26/25
f 103/28/27 39/29/28 104/30/29
f 39/29/28 90/4/4 104/30/29
f 11/5/5 91/31/30 89/6/6
f 13/32/31 92/9/9 91/31/30
f 11/5/5 12/33/32 13/32/31
f 15/7/7 12/33/32 14/34/33
f 17/10/10 14/34/33 16/35/34
f 17/10/10 18/36/35 19/37/12
f 21/38/36 18/39/35 20/40/37
f 21/38/36 22/41/38 23/15/14
f 25/18/17 22/41/38 24/42/39
f 27/20/19 24/42/39 26/43/40
f 29/44/41 26/43/40 28/45/42
f 29/44/41 30/46/43 31/22/21
f 31/22/21 32/47/44 33/24/23
f 35/27/26 32/47/44 34/48/45
f 35/27/26 36/49/46 37/50/47
f 37/50/47 38/51/48 39/29/28
f 41/52/49 38/51/48 40/53/50
f 11/5/5 40/53/50 10/54/51
f 14/55/52 38/56/52 30/57/52
f 50/58/53 2/59/54 42/60/55
f 49/61/56 42/60/55 1/62/57
f 64/63/58 9/64/59 8/65/60
f 7/66/61 64/63/58 8/65/60
f 62/67/62 7/66/61 48/68/63
f 61/69/64 48/68/63 47/70/65
f 60/71/66 47/70/65 6/72/67
f 46/73/68 60/71/66 6/72/67
f 58/74/69 46/73/68 45/75/70
f 5/76/71 58/74/69 45/75/70
f 56/77/72 5/76/71 44/78/73
f 55/79/74 44/78/73 4/80/75
f 54/81/76 4/80/75 3/82/77
f 43/83/78 54/84/76 3/85/77
f 52/86/79 43/83/78 2/59/54
f 51/87/80 1/62/57 9/64/59
f 87/88/81 83/89/82 75/90/83
f 88/91/84 72/92/85 71/93/86
f 65/94/87 78/95/88 76/96/89
f 69/97/3 74/98/90 84/99/1
f 67/100/91 86/101/92 80/102/93
f 8/103/52 67/104/52 68/105/52
f 71/106/86 82/107/94 88/108/84
f 80/109/93 68/110/95 67/111/91
f 73/112/96 76/113/89 75/114/83
f 77/115/97 80/109/93 79/116/98
f 85/117/99 88/91/84 87/118/81
f 81/119/100 84/1/1 83/120/82
f 75/121/83 78/95/88 77/115/97
f 83/122/82 74/98/90 73/112/96
f 86/101/92 79/123/98 80/102/93
f 82/107/94 87/124/81 88/108/84
f 66/125/101 76/113/89 74/98/90
f 6/126/52 65/127/52 66/128/52
f 44/129/52 69/130/52 70/131/52
f 2/132/52 71/133/52 72/134/52
f 71/135/52 43/136/52 3/137/52
f 1/138/52 72/134/52 67/104/52
f 48/139/52 68/105/52 65/127/52
f 69/130/52 5/140/52 45/141/52
f 91/31/30 52/86/79 50/58/53
f 89/6/6 50/58/53 49/61/56
f 104/30/29 51/87/80 64/63/58
f 63/142/102 104/30/29 64/63/58
f 102/26/25 63/142/102 62/67/62
f 101/25/24 62/67/62 61/69/64
f 100/23/22 61/69/64 60/71/66
f 59/143/103 100/23/22 60/71/66
f 98/19/18 59/143/103 58/74/69
f 97/17/16 58/74/69 57/144/104
f 96/16/15 57/144/104 56/77/72
f 95/13/13 56/77/72 55/79/74
f 94/14/11 55/79/74 54/81/76
f 93/8/8 54/84/76 53/145/105
f 92/9/9 53/145/105 52/86/79
f 90/4/4 49/61/56 51/87/80
f 84/1/1 82/107/94 70/2/2
f 90/4/4 41/52/49 11/5/5
f 15/7/7 17/10/10 93/8/8
f 17/10/10 19/37/12 94/11/11
f 19/12/12 21/38/36 95/13/13
f 95/13/13 21/38/36 23/15/14
f 23/15/14 25/18/17 97/17/16
f 25/18/17 27/20/19 98/19/18
f 27/20/19 29/44/41 99/21/20
f 99/21/20 29/44/41 31/22/21
f 100/23/22 31/22/21 33/24/23
f 33/24/23 35/27/26 102/26/25
f 35/27/26 37/50/47 103/28/27
f 103/28/27 37/50/47 39/29/28
f 39/29/28 41/52/49 90/4/4
f 11/5/5 13/32/31 91/31/30
f 13/32/31 15/7/7 92/9/9
f 11/5/5 10/54/51 12/33/32
f 15/7/7 13/32/31 12/33/32
f 17/10/10 15/7/7 14/34/33
f 17/10/10 16/35/34 18/36/35
f 21/38/36 19/12/12 18/39/35
f 21/38/36 20/40/37 22/41/38
f 25/18/17 23/15/14 22/41/38
f 27/20/19 25/18/17 24/42/39
f 29/44/41 27/20/19 26/43/40
f 29/44/41 28/45/42 30/46/43
f 31/22/21 30/46/43 32/47/44
f 35/27/26 33/24/23 32/47/44
f 35/27/26 34/48/45 36/49/46
f 37/50/47 36/49/46 38/51/48
f 41/52/49 39/29/28 38/51/48
f 11/5/5 41/52/49 40/53/50
f 14/55/52 12/146/52 10/147/52
f 10/147/52 40/148/52 14/55/52
f 40/148/52 38/56/52 14/55/52
f 38/56/52 36/149/52 34/150/52
f 34/150/52 32/151/52 30/57/52
f 30/57/52 28/152/52 26/153/52
f 26/153/52 24/154/52 22/155/52
f 22/155/52 20/156/52 14/55/52
f 20/156/52 18/157/52 14/55/52
f 18/157/52 16/158/52 14/55/52
f 38/56/52 34/150/52 30/57/52
f 30/57/52 26/153/52 14/55/52
f 26/153/52 22/155/52 14/55/52
f 50/58/53 52/86/79 2/59/54
f 49/61/56 50/58/53 42/60/55
f 64/63/58 51/87/80 9/64/59
f 7/66/61 63/142/102 64/63/58
f 62/67/62 63/142/102 7/66/61
f 61/69/64 62/67/62 48/68/63
f 60/71/66 61/69/64 47/70/65
f 46/73/68 59/143/103 60/71/66
f 58/74/69 59/143/103 46/73/68
f 5/76/71 57/144/104 58/74/69
f 56/77/72 57/144/104 5/76/71
f 55/79/74 56/77/72 44/78/73
f 54/81/76 55/79/74 4/80/75
f 43/83/78 53/145/105 54/84/76
f 52/86/79 53/145/105 43/83/78
f 51/87/80 49/61/56 1/62/57
f 75/90/83 77/159/97 79/160/98
f 79/160/98 85/161/99 87/88/81
f 87/88/81 81/162/100 83/89/82
f 83/89/82 73/163/96 75/90/83
f 75/90/83 79/160/98 87/88/81
f 88/91/84 86/101/92 72/92/85
f 65/94/87 68/110/95 78/95/88
f 69/97/3 66/125/101 74/98/90
f 67/100/91 72/92/85 86/101/92
f 68/105/52 7/164/52 8/103/52
f 8/103/52 9/165/52 67/104/52
f 71/106/86 70/2/2 82/107/94
f 80/109/93 78/95/88 68/110/95
f 73/112/96 74/98/90 76/113/89
f 77/115/97 78/95/88 80/109/93
f 85/117/99 86/101/92 88/91/84
f 81/119/100 82/107/94 84/1/1
f 75/121/83 76/96/89 78/95/88
f 83/122/82 84/99/1 74/98/90
f 86/101/92 85/117/99 79/123/98
f 82/107/94 81/119/100 87/124/81
f 66/125/101 65/166/87 76/113/89
f 66/128/52 46/167/52 6/126/52
f 6/126/52 47/168/52 65/127/52
f 70/131/52 4/169/52 44/129/52
f 44/129/52 5/140/52 69/130/52
f 72/134/52 42/170/52 2/132/52
f 2/132/52 43/171/52 71/133/52
f 3/137/52 4/169/52 70/131/52
f 70/131/52 71/135/52 3/137/52
f 67/104/52 9/165/52 1/138/52
f 1/138/52 42/170/52 72/134/52
f 65/127/52 47/168/52 48/139/52
f 48/139/52 7/164/52 68/105/52
f 45/141/52 46/167/52 66/128/52
f 66/128/52 69/130/52 45/141/52
f 91/31/30 92/9/9 52/86/79
f 89/6/6 91/31/30 50/58/53
f 104/30/29 90/4/4 51/87/80
f 63/142/102 103/28/27 104/30/29
f 102/26/25 103/28/27 63/142/102
f 101/25/24 102/26/25 62/67/62
f 100/23/22 101/25/24 61/69/64
f 59/143/103 99/21/20 100/23/22
f 98/19/18 99/21/20 59/143/103
f 97/17/16 98/19/18 58/74/69
f 96/16/15 97/17/16 57/144/104
f 95/13/13 96/16/15 56/77/72
f 94/14/11 95/13/13 55/79/74
f 93/8/8 94/11/11 54/84/76
f 92/9/9 93/8/8 53/145/105
f 90/4/4 89/6/6 49/61/56
