# Blender 3.6.5
# www.blender.org
mtllib ice_machine.mtl
o ice_machine2
v -0.420947 0.016058 1.360844
v -0.420947 1.226729 1.360844
v 0.709096 0.016058 1.360541
v 0.370319 1.226729 1.360632
v -0.421689 0.514706 -1.406763
v 0.788982 0.514706 -1.407087
v 0.789724 0.514706 1.360519
v -0.420947 0.514706 1.360844
v 0.789031 0.514706 -1.223369
v -0.420996 0.514706 1.178456
v -0.420996 1.226729 1.178456
v -0.421640 0.016058 -1.223045
v 0.709047 0.016058 1.178153
v 0.369626 1.226729 -1.223257
v -0.421640 0.514706 -1.223045
v 0.789675 0.514706 1.178132
v -0.421640 1.226729 -1.223045
v -0.420996 0.016058 1.178456
v 0.370270 1.226729 1.178244
v 0.708404 0.016058 -1.223348
v 0.708764 0.016058 0.122807
v 0.369987 1.226729 0.122898
v -0.421279 0.016058 0.123110
v -0.421279 1.226729 0.123110
v -0.421279 0.514706 0.123110
v 0.789392 0.514706 0.122786
v 0.708686 0.016058 -0.170261
v -0.421357 1.226729 -0.169958
v -0.421357 0.514706 -0.169958
v 0.369908 1.226729 -0.170170
v -0.421358 0.016058 -0.169958
v 0.789313 0.514706 -0.170283
v 0.289334 0.016058 -1.406953
v 0.290076 0.016058 1.360653
v 0.043761 1.226729 1.360719
v 0.115679 0.514706 1.360700
v 0.043068 1.226729 -1.223170
v 0.290027 0.016058 1.178265
v 0.289384 0.016058 -1.223236
v 0.043712 1.226729 1.178331
v 0.289744 0.016058 0.122920
v 0.043429 1.226729 0.122986
v 0.289666 0.016058 -0.170149
v 0.043351 1.226729 -0.170083
v 0.579280 0.870717 -1.407031
v 0.580021 0.870717 1.360575
v -0.420947 0.870717 1.360844
v 0.579972 0.870717 1.178188
v -0.421640 0.870717 -1.223045
v -0.420996 0.870717 1.178456
v 0.579329 0.870717 -1.223313
v 0.579689 0.870717 0.122842
v -0.421279 0.870717 0.123110
v 0.579611 0.870717 -0.170226
v -0.421357 0.870717 -0.169958
v 0.079720 0.870717 1.360710
v -0.421689 1.226729 -1.406763
v 0.708355 0.016058 -1.407065
v -0.421689 0.016058 -1.406763
v -0.142394 1.226729 1.360769
v -0.235768 1.226729 1.360794
v -0.318982 1.226729 1.360816
v -0.120840 0.870717 1.360763
v -0.221439 0.870717 1.360790
v -0.311092 0.870717 1.360814
v -0.051580 1.226729 1.360745
v -0.022999 0.870717 1.360737
v 0.369577 1.226729 -1.406975
v 0.043019 1.226729 -1.406887
v 0.114938 0.514706 -1.406906
v -0.421689 0.870717 -1.406763
v 0.078978 0.870717 -1.406897
v -0.143136 1.226729 -1.406837
v -0.236510 1.226729 -1.406812
v -0.319723 1.226729 -1.406790
v -0.121581 0.870717 -1.406843
v -0.222181 0.870717 -1.406816
v -0.311833 0.870717 -1.406792
v -0.052322 1.226729 -1.406862
v -0.023740 0.870717 -1.406869
v 0.379406 1.211301 1.360629
v -0.420947 1.211301 1.360844
v 0.379357 1.211301 1.178241
v -0.421640 1.211301 -1.223045
v -0.420996 1.211301 1.178456
v 0.378714 1.211301 -1.223260
v 0.379075 1.211301 0.122896
v -0.421279 1.211301 0.123110
v 0.378996 1.211301 -0.170173
v -0.421357 1.211301 -0.169958
v 0.045319 1.211301 1.360719
v -0.141460 1.211301 1.360769
v -0.235148 1.211301 1.360794
v -0.318640 1.211301 1.360816
v -0.050342 1.211301 1.360744
v 0.044577 1.211301 -1.406888
v -0.142202 1.211301 -1.406837
v -0.235889 1.211301 -1.406812
v -0.319381 1.211301 -1.406790
v -0.051083 1.211301 -1.406862
v -0.421689 1.211301 -1.406763
v 0.378665 1.211301 -1.406977
v 0.784206 0.522814 -1.407086
v 0.784948 0.522814 1.360521
v 0.784899 0.522814 1.178133
v 0.784255 0.522814 -1.223368
v 0.784616 0.522814 0.122787
v 0.784537 0.522814 -0.170281
v 0.114860 0.522814 1.360700
v 0.114119 0.522814 -1.406906
v 0.389410 1.217223 1.178239
v 0.590025 0.876639 1.178185
v 0.388767 1.217223 -1.223262
v 0.589382 0.876639 -1.223316
v 0.389128 1.217223 0.122893
v 0.589743 0.876639 0.122840
v 0.389049 1.217223 -0.170175
v 0.589664 0.876639 -0.170229
v 0.794952 0.528735 1.178130
v 0.794308 0.528735 -1.223371
v 0.794669 0.528735 0.122785
v 0.794591 0.528735 -0.170284
v 0.052630 1.319102 -0.266945
v 0.150048 1.339684 -0.266971
v 0.052773 1.319102 0.268361
v 0.150192 1.339684 0.268334
v 0.052630 1.677173 -0.266945
v 0.150048 1.656591 -0.266971
v 0.150192 1.656591 0.268334
v 0.052773 1.677173 0.268361
v 0.052607 1.319102 -0.350998
v 0.150031 1.339684 -0.330443
v 0.052607 1.677173 -0.350998
v 0.150031 1.656591 -0.330443
v 0.150209 1.339684 0.333476
v 0.052796 1.319102 0.354084
v 0.150209 1.656591 0.333476
v 0.052796 1.677173 0.354084
v 0.145108 1.220066 -0.239785
v 0.057584 1.220066 -0.239762
v 0.057584 1.319102 -0.239762
v 0.145108 1.319102 -0.239785
v 0.145237 1.220066 0.241152
v 0.145237 1.319102 0.241152
v 0.057713 1.220066 0.241175
v 0.057713 1.319102 0.241175
v 0.150048 1.319102 -0.266971
v 0.150192 1.319102 0.268334
v 0.150048 1.677173 -0.266971
v 0.150192 1.677173 0.268334
v 0.150026 1.319102 -0.351025
v 0.150026 1.677173 -0.351025
v 0.150215 1.677173 0.354058
v 0.150215 1.319102 0.354058
v 0.130216 1.339684 -0.266965
v 0.130216 1.656591 -0.266965
v 0.130359 1.656591 0.268340
v 0.130359 1.339684 0.268340
v 0.130199 1.339684 -0.330438
v 0.130199 1.656591 -0.330438
v 0.130377 1.656591 0.333482
v 0.130377 1.339684 0.333482
v 0.044576 1.211301 -1.412434
v 0.078977 0.870717 -1.412443
v -0.311835 0.870717 -1.412338
v -0.421690 0.870717 -1.412309
v -0.023742 0.870717 -1.412415
v -0.121583 0.870717 -1.412389
v -0.222182 0.870717 -1.412362
v -0.142203 1.211301 -1.412384
v -0.235891 1.211301 -1.412359
v -0.319383 1.211301 -1.412336
v -0.051085 1.211301 -1.412408
v -0.421690 1.211301 -1.412309
v -0.420947 1.211301 1.363069
v -0.420947 0.870717 1.363069
v 0.045320 1.211301 1.362944
v 0.079721 0.870717 1.362935
v -0.311091 0.870717 1.363039
v -0.022998 0.870717 1.362962
v -0.120839 0.870717 1.362988
v -0.221439 0.870717 1.363015
v -0.141459 1.211301 1.362994
v -0.235147 1.211301 1.363019
v -0.318639 1.211301 1.363041
v -0.050341 1.211301 1.362970
vn 0.8616 0.5075 -0.0002
vn 0.0003 -0.0000 1.0000
vn -1.0000 -0.0000 0.0003
vn -0.0000 -1.0000 -0.0000
vn 0.9872 -0.1596 -0.0003
vn -0.0000 1.0000 -0.0000
vn -0.0003 -0.0000 -1.0000
vn 0.5075 -0.8616 -0.0001
vn 0.9949 0.1005 -0.0003
vn -0.5075 0.8616 0.0001
vn 1.0000 -0.0000 -0.0003
vt 0.129965 0.677784
vt 0.070548 0.668966
vt 0.129298 0.668966
vt 0.452171 0.719142
vt 0.458579 0.687039
vt 0.458605 0.719104
vt 0.751653 0.632406
vt 0.749608 0.656767
vt 0.749608 0.632406
vt 0.901501 0.289773
vt 0.807217 0.313958
vt 0.807217 0.289773
vt 0.657237 0.632406
vt 0.591114 0.656767
vt 0.591114 0.632406
vt 0.099193 0.270803
vt 0.066176 0.002990
vt 0.123831 0.002990
vt 0.657237 0.492763
vt 0.591114 0.492763
vt 0.902443 0.677784
vt 0.563643 0.668966
vt 0.902859 0.668966
vt 0.751653 0.313958
vt 0.749608 0.453901
vt 0.749608 0.313958
vt 0.751653 0.492763
vt 0.749608 0.492763
vt 0.657237 0.313958
vt 0.591114 0.453901
vt 0.591114 0.313958
vt 0.469432 0.677784
vt 0.469241 0.668966
vt 0.984584 0.270803
vt 0.882977 0.002990
vt 0.941053 0.002990
vt 0.751653 0.289773
vt 0.749608 0.289773
vt 0.460630 0.270803
vt 0.457440 0.002990
vt 0.563702 0.677784
vt 0.561001 0.270803
vt 0.550082 0.002990
vt 0.657237 0.289773
vt 0.591114 0.289773
vt 0.961538 0.677784
vt 0.962037 0.668966
vt 0.751653 0.453901
vt 0.657237 0.453901
vt 0.921664 0.270803
vt 0.763278 0.586606
vt 0.736805 0.654039
vt 0.736805 0.586606
vt 0.751653 0.453901
vt 0.807217 0.492763
vt 0.751653 0.632406
vt 0.807217 0.656767
vt 0.751653 0.656767
vt 0.641475 0.586606
vt 0.625000 0.654039
vt 0.625000 0.586606
vt 0.858405 0.654039
vt 0.858405 0.586606
vt 0.807217 0.453901
vt 0.807217 0.632406
vt 0.760250 0.994424
vt 0.957001 0.859001
vt 0.958390 0.979841
vt 0.875000 0.586606
vt 0.452171 0.925060
vt 0.458697 0.833174
vt 0.458846 0.926563
vt 0.606210 0.959742
vt 0.749950 0.823426
vt 0.756742 0.993634
vt 0.704445 0.453901
vt 0.973061 0.474294
vt 0.921445 0.275438
vt 0.984321 0.275438
vt 0.562351 0.474294
vt 0.460730 0.275438
vt 0.561031 0.275438
vt 0.704445 0.289773
vt 0.205217 0.482100
vt 0.210332 0.308819
vt 0.210332 0.482100
vt 0.704445 0.492763
vt 0.704445 0.313958
vt 0.099543 0.275438
vt 0.704445 0.632406
vt 0.657237 0.656767
vt 0.114579 0.474294
vt 0.037122 0.275438
vt 0.458626 0.745272
vt 0.452171 0.774737
vt 0.458650 0.774635
vt 0.452171 0.803329
vt 0.458673 0.803193
vt 0.749950 0.823426
vt 0.756742 0.993634
vt 0.458673 0.803193
vt 0.452171 0.745340
vt 0.452171 0.833345
vt 0.875000 0.750000
vt 0.875000 0.654039
vt 0.753380 0.823287
vt 0.955025 0.687039
vt 0.641475 0.750000
vt 0.641475 0.654039
vt 0.901501 0.492763
vt 0.901501 0.313958
vt 0.858405 0.750000
vt 0.763278 0.654039
vt 0.625000 0.692480
vt 0.625000 0.673727
vt 0.901501 0.632406
vt 0.901501 0.453901
vt 0.736805 0.750000
vt 0.601131 0.743769
vt 0.600641 0.718276
vt 0.458846 0.926563
vt 0.747911 0.687039
vt 0.602214 0.800195
vt 0.601680 0.772374
vt 0.478345 0.877109
vt 0.478345 0.863476
vt 0.602775 0.829402
vt 0.600041 0.687039
vt 0.912053 0.474294
vt 0.465031 0.474294
vt 0.269389 0.468552
vt 0.263771 0.278230
vt 0.269389 0.278230
vt 0.258485 0.473942
vt 0.263983 0.664178
vt 0.258485 0.664178
vt 0.704445 0.656767
vt 0.054013 0.474294
vt 0.036728 0.270803
vt 0.432243 0.474294
vt 0.106035 0.275438
vt 0.428405 0.275438
vt 0.910045 0.474294
vt 0.598879 0.668966
vt 0.597725 0.474294
vt 0.436001 0.668966
vt 0.119455 0.474294
vt 0.272032 0.476593
vt 0.266474 0.288319
vt 0.272032 0.288319
vt 0.269389 0.662965
vt 0.263771 0.468552
vt 0.272032 0.668913
vt 0.266474 0.476593
vt 0.263983 0.287708
vt 0.263983 0.473942
vt 0.280279 0.659682
vt 0.276089 0.281513
vt 0.280279 0.281513
vt 0.210332 0.659105
vt 0.205217 0.659105
vt 0.248196 0.660582
vt 0.243996 0.280612
vt 0.248196 0.280612
vt 0.421080 0.758329
vt 0.421111 0.761526
vt 0.421080 0.761697
vt 0.421693 0.758329
vt 0.421662 0.761526
vt 0.421662 0.758500
vt 0.423947 0.761697
vt 0.421693 0.761697
vt 0.420467 0.758318
vt 0.421080 0.761687
vt 0.420467 0.761687
vt 0.419729 0.758458
vt 0.419854 0.761827
vt 0.419729 0.761827
vt 0.423947 0.757789
vt 0.423947 0.758329
vt 0.419604 0.758048
vt 0.419729 0.758448
vt 0.419604 0.758448
vt 0.419854 0.762226
vt 0.420467 0.759973
vt 0.420467 0.762226
vt 0.421080 0.757789
vt 0.421080 0.758318
vt 0.421693 0.762226
vt 0.421080 0.762226
vt 0.419854 0.759973
vt 0.420467 0.757719
vt 0.421693 0.757789
vt 0.426075 0.757789
vt 0.425950 0.755795
vt 0.426075 0.755795
vt 0.378925 0.369170
vt 0.316847 0.298927
vt 0.378925 0.298927
vt 0.246604 0.298927
vt 0.176361 0.640038
vt 0.176361 0.298927
vt 0.378925 0.439413
vt 0.316847 0.369170
vt 0.378925 0.369170
vt 0.316847 0.298927
vt 0.246604 0.640038
vt 0.421111 0.758500
vt 0.424076 0.761687
vt 0.423947 0.758318
vt 0.424076 0.758318
vt 0.426071 0.758318
vt 0.426200 0.761687
vt 0.426071 0.761687
vt 0.424076 0.757919
vt 0.426200 0.757789
vt 0.426071 0.757919
vt 0.426200 0.758318
vt 0.426071 0.762097
vt 0.423947 0.762226
vt 0.424076 0.762097
vt 0.426200 0.762226
vt 0.423947 0.761687
vt 0.374730 0.736768
vt 0.065024 0.947461
vt 0.062168 0.741093
vt 0.414647 0.942623
vt 0.377586 0.943136
vt 0.024132 0.741619
vt 0.419729 0.758048
vt 0.419854 0.758458
vt 0.419729 0.762226
vt 0.419729 0.761816
vt 0.419604 0.761816
vt 0.419604 0.762226
vt 0.918433 0.275438
vt 0.071297 0.677784
vt 0.452171 0.687039
vt 0.751653 0.656767
vt 0.205217 0.308819
vt 0.763278 0.750000
vt 0.625000 0.750000
vt 0.625000 0.728944
vt 0.625000 0.711761
vt 0.901501 0.656767
vt 0.901834 0.668966
vt 0.132592 0.668966
vt 0.263771 0.662965
vt 0.266474 0.668913
vt 0.258485 0.287708
vt 0.276089 0.659682
vt 0.243996 0.660582
vt 0.420467 0.757789
vt 0.419854 0.757719
vt 0.425950 0.757789
vt 0.316848 0.369170
vt 0.316848 0.439413
vt 0.316847 0.640038
vt 0.411792 0.736255
vt 0.026988 0.947988
vt 0.419854 0.758048
vt 0.426200 0.755795
vt 0.596546 0.275438
s 1
usemtl ice_machine_bse
f 19/1/1 81/2/1 83/3/1
f 62/4/2 82/5/2 94/6/2
f 17/7/3 101/8/3 84/9/3
f 1/10/4 38/11/4 34/12/4
f 15/13/3 59/14/3 12/15/3
f 16/16/5 3/17/5 13/18/5
f 29/19/3 12/15/3 31/20/3
f 14/21/1 89/22/1 86/23/1
f 11/24/3 88/25/3 85/26/3
f 28/27/3 84/9/3 90/28/3
f 10/29/3 23/30/3 18/31/3
f 22/32/1 83/3/1 87/33/1
f 6/34/5 20/35/5 58/36/5
f 2/37/3 85/26/3 82/38/3
f 26/39/5 13/18/5 21/40/5
f 30/41/1 87/33/1 89/22/1
f 32/42/5 21/40/5 27/43/5
f 8/44/3 18/31/3 1/45/3
f 68/46/1 86/23/1 102/47/1
f 24/48/3 90/28/3 88/25/3
f 25/49/3 31/20/3 23/30/3
f 9/50/5 27/43/5 20/35/5
f 30/51/6 42/52/6 22/53/6
f 21/54/4 43/55/4 27/27/4
f 20/56/4 33/57/4 58/58/4
f 19/59/6 35/60/6 4/61/6
f 37/62/6 30/51/6 14/63/6
f 13/24/4 41/64/4 21/54/4
f 27/27/4 39/65/4 20/56/4
f 42/52/6 19/59/6 22/53/6
f 7/66/2 34/67/2 3/68/2
f 68/69/6 37/62/6 14/63/6
f 3/37/4 38/11/4 13/24/4
f 4/70/2 91/71/2 81/72/2
f 46/73/2 109/74/2 104/75/2
f 53/76/3 29/19/3 25/49/3
f 45/77/1 106/78/1 103/79/1
f 54/80/1 107/81/1 108/82/1
f 47/83/3 10/29/3 8/44/3
f 51/84/7 113/85/7 114/86/7
f 55/87/3 15/13/3 29/19/3
f 50/88/3 25/49/3 10/29/3
f 107/81/8 119/89/8 105/89/8
f 49/90/3 5/91/3 15/13/3
f 48/92/1 104/93/1 105/89/1
f 98/94/7 73/95/7 97/96/7
f 97/96/7 79/97/7 100/98/7
f 110/99/7 45/73/7 103/100/7
f 66/97/2 92/96/2 95/101/2
f 60/95/2 93/94/2 92/96/2
f 61/102/2 94/6/2 93/94/2
f 35/103/2 95/101/2 91/71/2
f 57/104/6 37/62/6 69/105/6
f 36/106/2 1/107/2 34/67/2
f 42/52/6 11/108/6 40/109/6
f 31/110/4 39/65/4 43/55/4
f 18/111/4 41/64/4 38/11/4
f 17/112/6 44/113/6 37/62/6
f 11/108/6 60/114/6 66/115/6
f 12/116/4 33/57/4 39/65/4
f 23/117/4 43/55/4 41/64/4
f 44/113/6 24/118/6 42/52/6
f 64/119/2 65/120/2 109/74/2
f 96/71/7 68/70/7 102/121/7
f 33/67/7 6/66/7 58/68/7
f 101/5/7 75/4/7 99/6/7
f 99/6/7 74/102/7 98/94/7
f 100/98/7 69/103/7 96/71/7
f 70/106/7 59/107/7 5/122/7
f 80/123/7 5/122/7 76/124/7
f 98/94/6 172/6/6 99/6/6
f 101/125/3 166/126/3 71/126/3
f 78/120/4 169/119/4 77/119/4
f 72/127/7 102/121/7 45/73/7
f 65/120/4 176/128/4 47/128/4
f 56/127/4 180/123/4 67/123/4
f 63/124/4 182/119/4 64/119/4
f 92/96/6 186/101/6 95/101/6
f 72/127/9 163/71/9 96/71/9
f 96/71/6 173/98/6 100/98/6
f 81/72/2 56/127/2 46/73/2
f 88/25/3 55/87/3 53/76/3
f 102/47/1 51/129/1 45/77/1
f 89/22/1 52/130/1 54/80/1
f 82/38/3 50/88/3 47/83/3
f 54/131/2 117/132/2 89/133/2
f 90/28/3 49/90/3 55/87/3
f 85/26/3 53/76/3 50/88/3
f 52/134/7 121/135/7 107/136/7
f 84/9/3 71/137/3 49/90/3
f 82/5/6 185/6/6 94/6/6
f 83/3/1 46/138/1 48/92/1
f 70/106/7 103/100/7 6/66/7
f 105/89/1 7/139/1 16/16/1
f 106/78/1 32/42/1 9/50/1
f 107/81/1 16/16/1 26/39/1
f 108/82/1 26/39/1 32/42/1
f 103/79/1 9/50/1 6/34/1
f 104/75/2 36/106/2 7/66/2
f 116/140/1 119/141/1 121/142/1
f 114/143/1 117/144/1 118/145/1
f 115/146/1 112/147/1 116/140/1
f 48/148/2 111/149/2 83/150/2
f 108/151/2 118/152/2 54/131/2
f 105/153/2 112/154/2 48/148/2
f 52/134/7 115/155/7 116/156/7
f 89/157/10 113/158/10 86/159/10
f 51/84/7 120/160/7 106/161/7
f 106/78/8 122/82/8 108/82/8
f 83/162/10 115/163/10 87/164/10
f 148/165/4 142/166/4 147/167/4
f 125/168/4 141/169/4 146/170/4
f 125/168/3 127/171/3 123/172/3
f 149/173/6 130/174/6 150/175/6
f 129/176/4 156/177/4 128/178/4
f 125/168/3 138/179/3 130/180/3
f 132/181/6 155/182/6 124/183/6
f 131/184/7 152/185/7 151/186/7
f 149/173/6 133/187/6 127/188/6
f 127/171/3 131/189/3 123/172/3
f 123/172/4 151/190/4 147/167/4
f 154/191/2 138/192/2 136/185/2
f 130/174/6 153/186/6 150/175/6
f 148/165/4 136/193/4 125/168/4
f 135/194/7 161/195/7 137/196/7
f 141/197/7 139/198/7 140/199/7
f 142/200/11 143/201/11 139/202/11
f 144/203/2 145/204/2 143/205/2
f 146/206/3 140/207/3 145/200/3
f 125/168/4 144/208/4 148/165/4
f 147/167/4 141/169/4 123/172/4
f 126/209/11 147/210/11 124/211/11
f 128/212/11 150/213/11 129/214/11
f 132/215/11 152/216/11 134/217/11
f 132/215/11 147/210/11 151/179/11
f 134/217/11 149/218/11 128/212/11
f 137/219/11 154/220/11 135/221/11
f 137/219/11 150/213/11 153/222/11
f 135/221/11 148/223/11 126/209/11
f 155/224/11 157/225/11 158/226/11
f 155/224/11 160/227/11 156/228/11
f 157/225/11 162/229/11 158/226/11
f 137/230/4 157/231/4 129/176/4
f 128/178/4 160/184/4 134/232/4
f 134/196/2 159/216/2 132/194/2
f 124/183/6 158/233/6 126/234/6
f 126/234/6 162/232/6 135/235/6
f 167/123/7 163/71/7 164/127/7
f 165/120/7 171/94/7 169/119/7
f 166/128/7 172/6/7 165/120/7
f 168/124/7 173/98/7 167/123/7
f 169/119/7 170/96/7 168/124/7
f 71/128/4 165/120/4 78/120/4
f 100/98/6 170/96/6 97/96/6
f 76/124/4 167/123/4 80/123/4
f 80/123/4 164/127/4 72/127/4
f 99/6/6 174/5/6 101/5/6
f 97/96/6 171/94/6 98/94/6
f 77/119/4 168/124/4 76/124/4
f 177/71/2 180/123/2 178/127/2
f 184/94/2 179/120/2 182/119/2
f 183/96/2 182/119/2 181/124/2
f 186/101/2 181/124/2 180/123/2
f 185/6/2 176/128/2 179/120/2
f 95/101/6 177/71/6 91/71/6
f 91/71/9 178/127/9 56/127/9
f 64/119/4 179/120/4 65/120/4
f 94/6/6 184/94/6 93/94/6
f 47/83/3 175/38/3 82/38/3
f 93/94/6 183/96/6 92/96/6
f 67/123/4 181/124/4 63/124/4
f 118/145/1 120/236/1 114/143/1
f 19/1/1 4/237/1 81/2/1
f 62/4/2 2/238/2 82/5/2
f 17/7/3 57/239/3 101/8/3
f 1/10/4 18/111/4 38/11/4
f 15/13/3 5/91/3 59/14/3
f 16/16/5 7/139/5 3/17/5
f 29/19/3 15/13/3 12/15/3
f 14/21/1 30/41/1 89/22/1
f 11/24/3 24/48/3 88/25/3
f 28/27/3 17/7/3 84/9/3
f 10/29/3 25/49/3 23/30/3
f 22/32/1 19/1/1 83/3/1
f 6/34/5 9/50/5 20/35/5
f 2/37/3 11/24/3 85/26/3
f 26/39/5 16/16/5 13/18/5
f 30/41/1 22/32/1 87/33/1
f 32/42/5 26/39/5 21/40/5
f 8/44/3 10/29/3 18/31/3
f 68/46/1 14/21/1 86/23/1
f 24/48/3 28/27/3 90/28/3
f 25/49/3 29/19/3 31/20/3
f 9/50/5 32/42/5 27/43/5
f 30/51/6 44/113/6 42/52/6
f 21/54/4 41/64/4 43/55/4
f 20/56/4 39/65/4 33/57/4
f 19/59/6 40/109/6 35/60/6
f 37/62/6 44/113/6 30/51/6
f 13/24/4 38/11/4 41/64/4
f 27/27/4 43/55/4 39/65/4
f 42/52/6 40/109/6 19/59/6
f 7/66/2 36/106/2 34/67/2
f 68/69/6 69/105/6 37/62/6
f 3/37/4 34/12/4 38/11/4
f 4/70/2 35/103/2 91/71/2
f 46/73/2 56/127/2 109/74/2
f 53/76/3 55/87/3 29/19/3
f 45/77/1 51/129/1 106/78/1
f 54/80/1 52/130/1 107/81/1
f 47/83/3 50/88/3 10/29/3
f 51/84/7 86/240/7 113/85/7
f 55/87/3 49/90/3 15/13/3
f 50/88/3 53/76/3 25/49/3
f 107/81/8 121/81/8 119/89/8
f 49/90/3 71/137/3 5/91/3
f 48/92/1 46/138/1 104/93/1
f 98/94/7 74/102/7 73/95/7
f 97/96/7 73/95/7 79/97/7
f 110/99/7 72/127/7 45/73/7
f 66/97/2 60/95/2 92/96/2
f 60/95/2 61/102/2 93/94/2
f 61/102/2 62/4/2 94/6/2
f 35/103/2 66/97/2 95/101/2
f 57/104/6 17/112/6 37/62/6
f 36/106/2 8/122/2 1/107/2
f 42/52/6 24/118/6 11/108/6
f 31/110/4 12/116/4 39/65/4
f 18/111/4 23/117/4 41/64/4
f 17/112/6 28/241/6 44/113/6
f 35/60/6 40/109/6 11/108/6
f 11/108/6 2/242/6 62/243/6
f 11/108/6 62/243/6 61/244/6
f 66/115/6 35/60/6 11/108/6
f 11/108/6 61/244/6 60/114/6
f 12/116/4 59/245/4 33/57/4
f 23/117/4 31/110/4 43/55/4
f 44/113/6 28/241/6 24/118/6
f 65/120/2 47/128/2 8/122/2
f 8/122/2 36/106/2 109/74/2
f 109/74/2 56/127/2 67/123/2
f 109/74/2 67/123/2 63/124/2
f 65/120/2 8/122/2 109/74/2
f 109/74/2 63/124/2 64/119/2
f 96/71/7 69/103/7 68/70/7
f 33/67/7 70/106/7 6/66/7
f 101/5/7 57/238/7 75/4/7
f 99/6/7 75/4/7 74/102/7
f 100/98/7 79/97/7 69/103/7
f 70/106/7 33/67/7 59/107/7
f 80/123/7 72/127/7 110/99/7
f 110/99/7 70/106/7 5/122/7
f 5/122/7 71/128/7 78/120/7
f 5/122/7 78/120/7 77/119/7
f 80/123/7 110/99/7 5/122/7
f 5/122/7 77/119/7 76/124/7
f 98/94/6 171/94/6 172/6/6
f 101/125/3 174/125/3 166/126/3
f 78/120/4 165/120/4 169/119/4
f 72/127/7 96/71/7 102/121/7
f 65/120/4 179/120/4 176/128/4
f 56/127/4 178/127/4 180/123/4
f 63/124/4 181/124/4 182/119/4
f 92/96/6 183/96/6 186/101/6
f 72/127/9 164/127/9 163/71/9
f 96/71/6 163/71/6 173/98/6
f 81/72/2 91/71/2 56/127/2
f 88/25/3 90/28/3 55/87/3
f 102/47/1 86/23/1 51/129/1
f 89/22/1 87/33/1 52/130/1
f 82/38/3 85/26/3 50/88/3
f 54/131/2 118/152/2 117/132/2
f 90/28/3 84/9/3 49/90/3
f 85/26/3 88/25/3 53/76/3
f 52/134/7 116/156/7 121/135/7
f 84/9/3 101/8/3 71/137/3
f 82/5/6 175/5/6 185/6/6
f 83/3/1 81/2/1 46/138/1
f 70/106/7 110/99/7 103/100/7
f 105/89/1 104/93/1 7/139/1
f 106/78/1 108/82/1 32/42/1
f 107/81/1 105/89/1 16/16/1
f 108/82/1 107/81/1 26/39/1
f 103/79/1 106/78/1 9/50/1
f 104/75/2 109/74/2 36/106/2
f 116/140/1 112/147/1 119/141/1
f 114/143/1 113/246/1 117/144/1
f 115/146/1 111/247/1 112/147/1
f 48/148/2 112/154/2 111/149/2
f 108/151/2 122/248/2 118/152/2
f 105/153/2 119/249/2 112/154/2
f 52/134/7 87/250/7 115/155/7
f 89/157/10 117/251/10 113/158/10
f 51/84/7 114/86/7 120/160/7
f 106/78/8 120/78/8 122/82/8
f 83/162/10 111/252/10 115/163/10
f 148/165/4 144/208/4 142/166/4
f 125/168/4 123/172/4 141/169/4
f 125/168/3 130/180/3 127/171/3
f 149/173/6 127/188/6 130/174/6
f 129/176/4 157/231/4 156/177/4
f 125/168/3 136/193/3 138/179/3
f 132/181/6 159/230/6 155/182/6
f 131/184/7 133/191/7 152/185/7
f 149/173/6 152/253/6 133/187/6
f 127/171/3 133/220/3 131/189/3
f 123/172/4 131/189/4 151/190/4
f 154/191/2 153/254/2 138/192/2
f 130/174/6 138/190/6 153/186/6
f 148/165/4 154/187/4 136/193/4
f 135/194/7 162/255/7 161/195/7
f 141/197/7 142/256/7 139/198/7
f 142/200/11 144/207/11 143/201/11
f 144/203/2 146/257/2 145/204/2
f 146/206/3 141/258/3 140/207/3
f 125/168/4 146/170/4 144/208/4
f 147/167/4 142/166/4 141/169/4
f 126/209/11 148/223/11 147/210/11
f 128/212/11 149/218/11 150/213/11
f 132/215/11 151/179/11 152/216/11
f 132/215/11 124/211/11 147/210/11
f 134/217/11 152/216/11 149/218/11
f 137/219/11 153/222/11 154/220/11
f 137/219/11 129/214/11 150/213/11
f 135/221/11 154/220/11 148/223/11
f 155/224/11 156/228/11 157/225/11
f 155/224/11 159/259/11 160/227/11
f 157/225/11 161/260/11 162/229/11
f 137/230/4 161/261/4 157/231/4
f 128/178/4 156/177/4 160/184/4
f 134/196/2 160/262/2 159/216/2
f 124/183/6 155/182/6 158/233/6
f 126/234/6 158/233/6 162/232/6
f 167/123/7 173/98/7 163/71/7
f 165/120/7 172/6/7 171/94/7
f 166/128/7 174/5/7 172/6/7
f 168/124/7 170/96/7 173/98/7
f 169/119/7 171/94/7 170/96/7
f 71/128/4 166/128/4 165/120/4
f 100/98/6 173/98/6 170/96/6
f 76/124/4 168/124/4 167/123/4
f 80/123/4 167/123/4 164/127/4
f 99/6/6 172/6/6 174/5/6
f 97/96/6 170/96/6 171/94/6
f 77/119/4 169/119/4 168/124/4
f 177/71/2 186/101/2 180/123/2
f 184/94/2 185/6/2 179/120/2
f 183/96/2 184/94/2 182/119/2
f 186/101/2 183/96/2 181/124/2
f 185/6/2 175/5/2 176/128/2
f 95/101/6 186/101/6 177/71/6
f 91/71/9 177/71/9 178/127/9
f 64/119/4 182/119/4 179/120/4
f 94/6/6 185/6/6 184/94/6
f 47/83/3 176/83/3 175/38/3
f 93/94/6 184/94/6 183/96/6
f 67/123/4 180/123/4 181/124/4
f 118/145/1 122/263/1 120/236/1
